HIERARCHY
ROOT Hips
{
	OFFSET 0.000000 0.000000 0.000000
	CHANNELS 6 Xposition Yposition Zposition Xrotation Yrotation Zrotation
	JOINT LeftUpLeg_virtual
	{
		OFFSET 0.000000 0.000000 0.000000
		CHANNELS 3 Xrotation Yrotation Zrotation
		JOINT LeftUpLeg
		{
			OFFSET 15.427100 -6.655098 0.678600
			CHANNELS 3 Xrotation Yrotation Zrotation
			JOINT LeftLeg
			{
				OFFSET 4.081073 -39.591068 13.024000
				CHANNELS 3 Xrotation Yrotation Zrotation
				JOINT LeftFoot
				{
					OFFSET -4.081074 -37.707932 -15.979700
					CHANNELS 3 Xrotation Yrotation Zrotation
					JOINT LeftToeBase
					{
						OFFSET 5.346399 -15.068900 20.645000
						CHANNELS 3 Xrotation Yrotation Zrotation
						JOINT LeftToe_End
						{
							OFFSET 2.754700 0.931300 11.300900
							CHANNELS 3 Xrotation Yrotation Zrotation
							End Site
							{
								OFFSET 0 0 0
							}
						}
					}
				}
			}
		}
	}
	JOINT RightUpLeg_virtual
	{
		OFFSET 0.000000 0.000000 0.000000
		CHANNELS 3 Xrotation Yrotation Zrotation
		JOINT RightUpLeg
		{
			OFFSET -15.569500 -6.655098 0.678600
			CHANNELS 3 Xrotation Yrotation Zrotation
			JOINT RightLeg
			{
				OFFSET -4.081825 -39.591045 13.023800
				CHANNELS 3 Xrotation Yrotation Zrotation
				JOINT RightFoot
				{
					OFFSET 4.081824 -37.707954 -15.979600
					CHANNELS 3 Xrotation Yrotation Zrotation
					JOINT RightToeBase
					{
						OFFSET -5.346400 -15.068900 20.645000
						CHANNELS 3 Xrotation Yrotation Zrotation
						JOINT RightToe_End
						{
							OFFSET -2.754700 0.931300 11.300900
							CHANNELS 3 Xrotation Yrotation Zrotation
							End Site
							{
								OFFSET 0 0 0
							}
						}
					}
				}
			}
		}
	}
	JOINT Spine_virtual
	{
		OFFSET 0.000000 0.000000 0.000000
		CHANNELS 3 Xrotation Yrotation Zrotation
		JOINT Spine
		{
			OFFSET -0.279200 12.230698 -2.892100
			CHANNELS 3 Xrotation Yrotation Zrotation
			JOINT Spine1
			{
				OFFSET -0.232667 10.192268 -1.242267
				CHANNELS 3 Xrotation Yrotation Zrotation
				JOINT Spine1_split
				{
					OFFSET -0.232667 10.192268 -1.242267
					CHANNELS 3 Xrotation Yrotation Zrotation
					JOINT Spine2
					{
						OFFSET -0.232667 10.192268 -1.242267
						CHANNELS 3 Xrotation Yrotation Zrotation
						JOINT Neck_virtual
						{
							OFFSET 0.000000 0.000000 0.000000
							CHANNELS 3 Xrotation Yrotation Zrotation
							JOINT Neck
							{
								OFFSET -0.418800 17.814194 8.416900
								CHANNELS 3 Xrotation Yrotation Zrotation
								JOINT Head
								{
									OFFSET 0.000000 7.031097 3.806800
									CHANNELS 3 Xrotation Yrotation Zrotation
									JOINT HeadTop_End
									{
										OFFSET 0.000000 24.646606 12.978600
										CHANNELS 3 Xrotation Yrotation Zrotation
										End Site
										{
											OFFSET 0 0 0
										}
									}
								}
							}
						}
						JOINT LeftShoulder_virtual
						{
							OFFSET 0.000000 0.000000 0.000000
							CHANNELS 3 Xrotation Yrotation Zrotation
							JOINT LeftShoulder
							{
								OFFSET 8.476499 7.247704 -3.868750
								CHANNELS 3 Xrotation Yrotation Zrotation
								JOINT LeftShoulder_split
								{
									OFFSET 8.476499 7.247704 -3.868750
									CHANNELS 3 Xrotation Yrotation Zrotation
									JOINT LeftArm
									{
										OFFSET 9.308998 -2.777710 0.208600
										CHANNELS 3 Xrotation Yrotation Zrotation
										JOINT LeftForeArm
										{
											OFFSET 29.972298 0.000000 0.000000
											CHANNELS 3 Xrotation Yrotation Zrotation
											JOINT LeftHand
											{
												OFFSET 26.026505 0.000000 0.000000
												CHANNELS 3 Xrotation Yrotation Zrotation
												End Site
												{
													OFFSET 0 0 0
												}
											}
										}
									}
								}
							}
						}
						JOINT RightShoulder_virtual
						{
							OFFSET 0.000000 0.000000 0.000000
							CHANNELS 3 Xrotation Yrotation Zrotation
							JOINT RightShoulder
							{
								OFFSET -7.570500 7.247704 -3.868750
								CHANNELS 3 Xrotation Yrotation Zrotation
								JOINT RightShoulder_split
								{
									OFFSET -7.570500 7.247704 -3.868750
									CHANNELS 3 Xrotation Yrotation Zrotation
									JOINT RightArm
									{
										OFFSET -9.308998 -2.777710 0.208500
										CHANNELS 3 Xrotation Yrotation Zrotation
										JOINT RightForeArm
										{
											OFFSET -29.972300 0.000000 0.000000
											CHANNELS 3 Xrotation Yrotation Zrotation
											JOINT RightHand
											{
												OFFSET -26.026505 0.000000 0.000000
												CHANNELS 3 Xrotation Yrotation Zrotation
												End Site
												{
													OFFSET 0 0 0
												}
											}
										}
									}
								}
							}
						}
					}
				}
			}
		}
	}
}
MOTION
Frames: 5
Frame Time: 0.03333333
3.705391 76.855049 17.310608 0.000000 0.000000 0.000000 -0.950839 -36.133224 -2.253593 -40.446963 -1.028490 24.320550 60.113745 1.322171 -1.646543 -18.851416 -9.378352 -12.595776 -4.182920 -0.661388 2.097783 0.000000 0.000000 0.000000 -1.516854 -30.820272 -2.028067 -7.954470 -15.017580 -33.676606 50.016386 -7.778622 -14.575958 -21.592518 -12.305383 26.573510 -11.997216 0.939336 1.467219 0.000000 0.000000 0.000000 -0.716525 -29.424837 -2.035211 12.469468 9.748780 -5.240673 2.002414 2.008145 -2.031495 0.936227 -0.531714 0.938432 0.000000 0.000000 0.000000 3.821924 1.360918 -1.405598 -11.119692 9.945514 6.277987 0.716781 9.046844 -1.094526 0.000000 0.000000 0.000000 2.818685 1.865723 -1.627982 0.715232 -0.128379 -5.552312 -1.897858 -3.192937 -0.204830 -59.109926 2.341021 -46.104405 -179.128131 -73.278443 -178.333097 0.000000 0.000000 0.000000 3.011147 1.377098 -1.815562 3.530832 22.152023 -4.744688 -8.215504 -3.750600 2.396084 -42.186267 17.657900 48.847092 -178.437148 62.026819 177.567488 0.000000 0.000000 0.000000 
3.702830 76.333977 15.010746 0.000000 0.000000 0.000000 -2.267297 -39.731866 -2.519858 -40.072098 -0.610811 26.419614 60.799339 1.491617 -2.043276 -17.413895 -8.225731 -13.016394 -4.693302 -0.765388 2.632735 0.000000 0.000000 0.000000 -2.908782 -34.201114 -2.220370 -9.461737 -14.581009 -34.978553 51.984375 -8.789685 -13.552828 -23.710734 -13.482906 26.188482 -8.868405 0.926703 1.231447 0.000000 0.000000 0.000000 -2.242033 -32.918606 -2.192695 12.790754 9.409195 -4.314463 2.113674 1.900235 -1.877871 0.861302 -0.362192 1.061219 0.000000 0.000000 0.000000 3.820298 1.312809 -1.284486 -10.673384 10.663579 5.825157 1.625639 11.673287 -2.122551 0.000000 0.000000 0.000000 2.991966 1.771213 -1.465232 0.808214 -0.035835 -5.363552 -1.523319 -3.191451 -0.255656 -60.090017 3.273833 -46.237946 -179.327682 -73.341683 -178.785474 0.000000 0.000000 0.000000 3.058167 1.261201 -1.674910 3.601389 21.803523 -5.169174 -7.617962 -3.063401 2.503003 -44.631673 17.925546 52.627164 -177.608947 62.667204 176.707307 0.000000 0.000000 0.000000 
3.553556 75.885109 12.614910 0.000000 0.000000 0.000000 -3.364677 -42.337587 -2.705175 -39.861776 -0.557375 28.157252 61.044570 1.444348 -2.317726 -15.504632 -7.406786 -13.542500 -4.948758 -0.764012 2.876732 0.000000 0.000000 0.000000 -4.197877 -36.924938 -2.314699 -10.969021 -13.735837 -36.227542 53.554813 -9.141985 -12.519289 -24.875904 -13.806011 26.618526 -7.011121 0.952736 1.115512 0.000000 0.000000 0.000000 -3.458117 -35.748052 -2.234538 12.969310 9.095370 -3.354977 2.210100 1.774851 -1.683158 0.852869 -0.253726 1.089336 0.000000 0.000000 0.000000 3.772041 1.255556 -1.129917 -10.059179 11.220430 5.189764 2.507523 13.660018 -3.035561 0.000000 0.000000 0.000000 3.181969 1.649120 -1.283075 0.918162 0.088706 -5.510701 -1.309611 -3.029910 -0.388350 -60.512150 3.993597 -46.435304 -179.580877 -74.005059 -179.222525 0.000000 0.000000 0.000000 3.181672 1.150948 -1.486687 3.624932 21.146732 -5.516091 -6.917185 -2.431694 2.543317 -47.090876 17.896883 56.490746 -177.278940 62.782771 176.303097 0.000000 0.000000 0.000000 
3.256378 75.584625 10.146584 0.000000 0.000000 0.000000 -4.171745 -44.015464 -2.748993 -39.745424 -0.857217 29.445851 60.636767 1.356651 -2.429603 -13.131632 -6.891279 -13.928875 -4.775304 -0.633495 2.599763 0.000000 0.000000 0.000000 -5.331620 -38.911219 -2.333191 -12.260953 -12.737368 -37.185199 54.259549 -8.879493 -11.643850 -25.129685 -13.355515 27.767624 -6.275959 1.015727 1.084754 0.000000 0.000000 0.000000 -4.316264 -37.846959 -2.146730 12.966610 8.774914 -2.409247 2.281778 1.620623 -1.455294 0.867610 -0.172695 1.058707 0.000000 0.000000 0.000000 3.698840 1.182343 -0.939276 -9.207387 11.651264 4.401607 3.334950 15.139767 -3.893563 0.000000 0.000000 0.000000 3.369769 1.499571 -1.083634 1.045010 0.217868 -5.969015 -1.271137 -2.759910 -0.527608 -60.352603 4.487799 -46.680904 -179.853579 -74.983265 -179.577585 0.000000 0.000000 0.000000 3.368532 1.051914 -1.250702 3.629732 20.313203 -5.753142 -6.269673 -2.073389 2.423202 -49.395286 17.761139 60.113048 -177.407047 63.068888 176.327221 0.000000 0.000000 0.000000 
2.930382 75.510246 7.732178 0.000000 0.000000 0.000000 -4.719822 -44.961564 -2.627454 -39.630865 -1.341521 30.210381 59.618030 1.350334 -2.377790 -10.409649 -6.640072 -13.959775 -4.143206 -0.388211 1.668216 0.000000 0.000000 0.000000 -6.315661 -40.229609 -2.289770 -13.107037 -12.033116 -37.652152 54.011316 -8.435006 -10.943756 -25.034382 -12.540448 28.516480 -5.522299 1.107215 1.143613 0.000000 0.000000 0.000000 -4.804421 -39.352333 -1.897101 12.835730 8.459293 -1.539040 2.334595 1.457329 -1.220272 0.844459 -0.107812 0.968347 0.000000 0.000000 0.000000 3.622545 1.084669 -0.728185 -8.151827 12.004180 3.523639 4.098111 16.225461 -4.744030 0.000000 0.000000 0.000000 3.533753 1.337347 -0.880794 1.178667 0.359306 -6.620943 -1.349732 -2.594007 -0.596432 -59.594206 4.760796 -46.969667 179.847528 -75.845795 -179.864289 0.000000 0.000000 0.000000 3.581104 0.963992 -1.002242 3.627107 19.434745 -5.901524 -5.631921 -1.916941 2.270531 -51.415192 17.850739 63.269968 -177.860257 63.855643 176.648349 0.000000 0.000000 0.000000 
